<?xml version="1.0" encoding="iso-8859-1"?>
<!-- Generator: Adobe Illustrator 19.0.0, SVG Export Plug-In . SVG Version: 6.00 Build 0)  -->
<svg version="1.1" id="Capa_1" xmlns="http://www.w3.org/2000/svg" xmlns:xlink="http://www.w3.org/1999/xlink" x="0px" y="0px"
	 viewBox="0 0 512 512" style="enable-background:new 0 0 512 512;" xml:space="preserve">
<g>
	<g>
		<path d="M333.087,92.102c-17.582-33.09-39.196-54.844-62.044-61.244v103.841c27.046-0.368,53.457-1.975,78.307-4.7
			C344.703,116.451,339.272,103.745,333.087,92.102z"/>
	</g>
</g>
<g>
	<g>
		<path d="M357.843,159.284c-27.495,3.217-56.817,5.101-86.802,5.499v76.174h97.486
			C367.623,212.325,363.983,184.739,357.843,159.284z"/>
	</g>
</g>
<g>
	<g>
		<path d="M154.323,158.594c-6.24,25.645-9.939,53.472-10.852,82.364h97.485v-76.275
			C210.855,164.086,181.612,162.009,154.323,158.594z"/>
	</g>
</g>
<g>
	<g>
		<path d="M178.913,92.102c-6.088,11.458-11.444,23.948-16.042,37.255c24.641,2.903,50.959,4.686,78.086,5.238V30.858
			C218.109,37.257,196.495,59.012,178.913,92.102z"/>
	</g>
</g>
<g>
	<g>
		<path d="M143.528,271.042c1.221,34.356,6.387,67.171,15.082,96.555c25.26-3.422,52.939-5.65,82.347-6.593v-89.962H143.528z"/>
	</g>
</g>
<g>
	<g>
		<path d="M479.475,129.975c-15.637,6.19-21.911,8.74-23.934,9.614c0.807-0.257,1.625-0.509,2.422-0.769
			c0.499-0.162-5.322,2.022-2.423,0.769c-19.778,6.281-42.719,11.513-67.786,15.557c6.28,26.951,9.982,55.911,10.873,85.812H512
			C509.733,201.504,498.578,163.73,479.475,129.975z"/>
	</g>
</g>
<g>
	<g>
		<path d="M113.431,271.041H0c2.691,46.817,17.914,91.26,44.059,129.438c8.685-5.127,18.75-9.74,30.176-13.815
			c15.728-5.607,34.054-10.372,54.474-14.244C119.854,341.237,114.629,306.828,113.431,271.041z"/>
	</g>
</g>
<g>
	<g>
		<path d="M54.796,137.027c-2.944-1.01-11.438-4.001-21.569-8.268C13.7,162.823,2.294,201.027,0,240.958h113.374
			c0.901-30.254,4.676-59.549,11.091-86.77C98.425,149.728,74.811,143.961,54.796,137.027z"/>
	</g>
</g>
<g>
	<g>
		<path d="M74.663,74.663C65.686,83.641,57.46,93.17,50.008,103.17c4.596,1.84,9.449,3.651,14.488,5.38l0.146,0.05
			c19.345,6.701,42.394,12.248,67.952,16.487c5.498-16.89,12.101-32.703,19.752-47.102C175.811,33.822,206.854,6.098,240.958,0
			C178.115,3.611,119.537,29.79,74.663,74.663z"/>
	</g>
</g>
<g>
	<g>
		<path d="M152.346,432.266c-5.176-9.741-9.867-20.136-14.069-31.064c-20.413,3.7-38.57,8.321-53.939,13.802
			c-8.647,3.084-15.776,6.289-21.667,9.49c3.839,4.391,7.828,8.68,11.991,12.843c44.873,44.874,103.451,71.052,166.294,74.663
			C206.854,505.901,175.811,476.429,152.346,432.266z"/>
	</g>
</g>
<g>
	<g>
		<path d="M437.337,74.664C392.463,29.79,333.885,3.611,271.042,0c34.103,6.098,65.145,33.822,88.611,77.986
			c7.788,14.656,14.493,30.774,20.048,48.004c25.643-3.996,48.941-9.273,68.649-15.68c2.162-0.824,5.569-2.354,14.481-5.998
			C455.159,93.897,446.655,83.982,437.337,74.664z"/>
	</g>
</g>
<g>
	<g>
		<path d="M375.417,396.692c-4.621,12.588-9.88,24.501-15.763,35.574c-23.466,44.163-54.507,73.635-88.611,79.734
			c62.843-3.611,121.421-29.79,166.295-74.663c7.534-7.534,14.541-15.456,21.004-23.719
			C434.744,406.337,406.5,400.614,375.417,396.692z"/>
	</g>
</g>
<g>
	<g>
		<path d="M168.793,396.571c3.11,7.528,6.485,14.736,10.12,21.579c17.581,33.09,39.196,56.592,62.044,62.992v-90.043
			C215.26,391.94,191.038,393.787,168.793,396.571z"/>
	</g>
</g>
<g>
	<g>
		<path d="M398.569,271.041c-1.137,33.946-5.894,66.654-13.938,96.545c34.645,4.652,65.914,11.484,91.495,20.179
			c21.148-35.189,33.477-75.017,35.874-116.723H398.569z"/>
	</g>
</g>
<g>
	<g>
		<path d="M271.042,271.042v89.451c0.834-0.002,1.662-0.009,2.498-0.009c27.763,0,54.988,1.268,80.85,3.678
			c8.094-28.496,12.908-60.099,14.082-93.12H271.042z"/>
	</g>
</g>
<g>
	<g>
		<path d="M273.54,390.57c-0.836,0-1.665,0.007-2.498,0.009v90.565c22.848-6.401,44.462-29.903,62.044-62.993
			c4.132-7.776,7.923-16.029,11.375-24.684C321.707,391.565,297.868,390.57,273.54,390.57z"/>
	</g>
</g>
<g>
</g>
<g>
</g>
<g>
</g>
<g>
</g>
<g>
</g>
<g>
</g>
<g>
</g>
<g>
</g>
<g>
</g>
<g>
</g>
<g>
</g>
<g>
</g>
<g>
</g>
<g>
</g>
<g>
</g>
</svg>
